<svg id="图层_1"
     data-name="图层 1"
     xmlns="http://www.w3.org/2000/svg"
     viewBox="0 0 225 208">
    <defs>
        <style>
            .cls-1 {
                fill: #8b0000;
            }

            .cls-2 {
                fill: #cc0019;
            }

            .cls-3,
            .cls-5 {
                fill: #fff;
            }

            .cls-4 {
                fill: #0b3b4c;
            }

            .cls-5 {
                font-size: 28.4px;
                font-family: LithosPro-Black, Lithos Pro;
                font-weight: 800;
                letter-spacing: 0.3em;
            }

            .cls-6 {
                letter-spacing: 0.24em;
            }

            .cls-7 {
                letter-spacing: 0.25em;
            }

            .cls-8 {
                letter-spacing: 0.3em;
            }
        </style>

        <svg height="450"
             width="450">
            <defs>
                <g id="mask-group">
                    <circle cx="100"
                            cy="50"
                            r="5"
                            stroke="black"
                            style="mix-blend-mode: darken;"
                            stroke-width="2"
                            fill="white">
                    </circle>
                    <circle cx="100"
                            cy="50"
                            r="10"
                            stroke="black"
                            style="mix-blend-mode: darken;"
                            stroke-width="2"
                            fill="white">
                    </circle>
                    <circle cx="100"
                            cy="50"
                            r="15"
                            stroke="black"
                            style="mix-blend-mode: darken;"
                            stroke-width="2"
                            fill="white">
                    </circle>
                    <circle cx="100"
                            cy="50"
                            r="20"
                            stroke="black"
                            style="mix-blend-mode: darken;"
                            stroke-width="2"
                            fill="white">
                    </circle>
                    <circle cx="100"
                            cy="50"
                            r="25"
                            stroke="black"
                            style="mix-blend-mode: darken;"
                            stroke-width="2"
                            fill="white">
                    </circle>
                    <circle cx="100"
                            cy="50"
                            r="30"
                            stroke="black"
                            style="mix-blend-mode: darken;"
                            stroke-width="2"
                            fill="white">
                    </circle>
                    <circle cx="100"
                            cy="50"
                            r="35"
                            stroke="black"
                            style="mix-blend-mode: darken;"
                            stroke-width="2"
                            fill="white">
                    </circle>
                    <circle cx="100"
                            cy="50"
                            r="40"
                            stroke="black"
                            style="mix-blend-mode: darken;"
                            stroke-width="2"
                            fill="white">
                    </circle>
                    <circle cx="100"
                            cy="50"
                            r="45"
                            stroke="black"
                            style="mix-blend-mode: darken;"
                            stroke-width="2"
                            fill="white">
                    </circle>
                    <circle cx="100"
                            cy="50"
                            r="50"
                            stroke="black"
                            style="mix-blend-mode: darken;"
                            stroke-width="2"
                            fill="white">
                    </circle>
                </g>
                <mask id="mask">
                    <rect id="bg"
                          x="0"
                          y="0"
                          width="100%"
                          height="100%"
                          fill="white" />
                    <use xlink:href="#mask-group" />
                </mask>
                <g id="logo">
                    <path class="cls-3"
                          d="M173.61,71.22c7-3.11,12-9,12-17.15a20,20,0,0,0-20-20c-7.87,0-14.66,5.73-17.94,12.33-4.66-2.15-10.38-5-17.62-5.94a140.54,140.54,0,0,0-21.92-1.51,140.44,140.44,0,0,0-21.91,1.51c-7,.91-12.56,3.67-17.14,5.72C65.68,39.65,59,34,51.17,34a20,20,0,0,0-20,20c0,8,4.72,13.73,11.52,16.94-7.54,9.59-19.58,26.72-15.32,46.47,6.81,31.53,43.77,35.68,80.72,35.76,37-.08,73.92-4.23,80.72-35.76C193,97.87,181.24,80.82,173.61,71.22Z">

                    </path>
                    <path class="cls-4"
                          d="M145.12,129.54a16.39,16.39,0,0,1-10.42-3.66,13.4,13.4,0,0,1-3.33-4.08c-.92-1.76-1.15-3.77-2.15-5.49a11.35,11.35,0,0,0-20.86,8.31c.88,3.73,3.55,6,6.41,8.26,6.12,4.85,15,5.71,22.49,4.34,8.57-1.57,15.23-6.11,16.8-14.6C153.16,127.46,150.42,129.54,145.12,129.54Z">

                    </path>
                    <path class="cls-4"
                          d="M71,129.54a16.36,16.36,0,0,0,10.41-3.66,13.29,13.29,0,0,0,3.34-4.08c.92-1.76,1.15-3.77,2.15-5.49a11.35,11.35,0,0,1,20.86,8.31c-.89,3.73-3.55,6-6.41,8.26-6.12,4.85-15,5.71-22.5,4.34-8.56-1.57-15.22-6.11-16.79-14.6C63,127.46,65.68,129.54,71,129.54Z">

                    </path>
                </g>
            </defs>
            <use mask="url(#mask)"
                 xlink:href="#logo"
                 fill="black"
                 fill-opacity="1">
    </defs>
    <title>logo</title>
    <rect class="cls-1"
          x="12.33"
          width="212.67"
          height="208" />
    <rect class="cls-2"
          width="212.67"
          height="208" />
    <use mask="url(#mask)"
         xlink:href="#logo"
         fill="black"
         fill-opacity="1" />

    <text class="cls-5"
          transform="translate(13.33 181.85)">
        M
        <tspan class="cls-6"
               x="39.43"
               y="0">
            P
        </tspan>
        <tspan x="66.55"
               y="0">
            AN
        </tspan>
        <tspan class="cls-7"
               x="133.02"
               y="0">
            D
        </tspan>
        <tspan class="cls-8"
               x="163.84"
               y="0">
            A
        </tspan>
    </text>
</svg>